<?xml version="1.0" encoding="iso-8859-1"?>
<!-- Uploaded to: SVG Repo, www.svgrepo.com, Generator: SVG Repo Mixer Tools -->
<svg version="1.1" id="Layer_1" xmlns="http://www.w3.org/2000/svg" xmlns:xlink="http://www.w3.org/1999/xlink" 
	 viewBox="0 0 512 512" xml:space="preserve">
<path style="fill:#FFE477;" d="M111.876,79.312h-37.48v35.871H35.957V79.312H7.616v353.377h28.341v-32.308h38.44v32.308h361.349
	v-32.308h40.298v32.308h28.341V79.312h-28.341v35.871h-40.298V79.312H172.705H111.876z M74.397,372.04H35.957v-35.873h38.44v35.873
	H74.397z M74.397,307.825H35.957v-35.873h38.44v35.873H74.397z M74.397,243.611H35.957v-35.873h38.44v35.873H74.397z
	 M74.397,179.397H35.957v-35.873h38.44v35.873H74.397z M476.044,143.523v35.873h-40.298v-35.873H476.044z M435.746,243.611v-35.873
	h40.298v35.873H435.746z M476.044,271.952v35.873h-40.298v-35.873H476.044z M435.746,372.04v-35.873h40.298v35.873H435.746z"/>
<rect x="100.97" y="105.296" style="fill:#FFF5CC;" width="308.21" height="301.406"/>
<g>
	<polygon style="fill:#CCA400;" points="257.767,173.587 282.036,226.79 340.133,233.43 297.035,272.951 308.672,330.257 
		257.767,301.481 206.862,330.257 218.5,272.951 175.401,233.43 233.499,226.79 	"/>
	<g style="opacity:0.22;">
		<rect x="435.745" y="334.227" style="fill:#CCA400;" width="40.298" height="35.877"/>
		<rect x="435.745" y="205.798" style="fill:#CCA400;" width="40.298" height="35.877"/>
		<path style="fill:#CCA400;" d="M476.044,177.457v-35.873h-34.36c-1.979,1.322-3.957,2.64-5.938,3.946v31.927H476.044z"/>
		<path style="fill:#CCA400;" d="M435.746,141.584v3.946c1.979-1.306,3.958-2.625,5.938-3.946H435.746z"/>
		<rect x="35.957" y="334.227" style="fill:#CCA400;" width="38.44" height="35.877"/>
		<rect x="435.745" y="270.008" style="fill:#CCA400;" width="40.298" height="35.877"/>
		<path style="fill:#CCA400;" d="M476.044,141.584v35.873h-40.298V145.53C274.103,252.199,110.628,307.287,7.616,334.04v96.71
			h28.341v-32.308h38.44v32.308h361.349v-32.308h40.298v32.308h28.341V96.846c-20.766,15.822-41.711,30.716-62.701,44.737h34.36
			V141.584z M74.397,370.101H35.957v-35.873h38.44v35.873H74.397z M476.044,370.101h-40.298v-35.873h40.298V370.101z
			 M476.044,305.887h-40.298v-35.873h40.298V305.887z M476.044,241.671h-40.298v-35.873h40.298V241.671z"/>
	</g>
</g>
<path d="M93.351,105.295v301.411c0,4.207,3.409,7.616,7.616,7.616h308.209c4.207,0,7.616-3.409,7.616-7.616V105.295
	c0-4.207-3.409-7.616-7.616-7.616H100.967C96.76,97.679,93.351,101.088,93.351,105.295z M108.583,112.911H401.56v286.178H108.583
	V112.911z"/>
<path d="M338.303,231.672l-53.82-6.152l-22.483-49.285c-1.746-3.827-6.262-5.517-10.09-3.768c-3.827,1.746-5.515,6.262-3.768,10.09
	l24.268,53.202c1.109,2.431,3.409,4.103,6.065,4.406l41.51,4.744l-30.794,28.239c-1.968,1.805-2.848,4.51-2.315,7.129l8.315,40.943
	L258.82,300.66c-2.324-1.315-5.171-1.315-7.495,0l-36.371,20.561l8.315-40.943c0.532-2.618-0.347-5.323-2.315-7.129L190.16,244.91
	l41.51-4.744c4.179-0.477,7.179-4.253,6.702-8.432c-0.477-4.18-4.266-7.185-8.432-6.702l-58.098,6.64
	c-2.964,0.338-5.457,2.376-6.378,5.214c-0.922,2.836-0.104,5.95,2.095,7.966l39.926,36.612l-10.78,53.087
	c-0.594,2.923,0.573,5.923,2.987,7.677c2.412,1.754,5.626,1.937,8.224,0.469l47.157-26.659l47.157,26.659
	c1.167,0.659,2.458,0.986,3.746,0.986c1.578,0,3.15-0.489,4.477-1.455c2.414-1.754,3.581-4.755,2.987-7.677l-10.78-53.087
	l39.926-36.612c2.199-2.016,3.018-5.13,2.095-7.966C343.76,234.048,341.267,232.01,338.303,231.672z"/>
<path d="M428.13,372.04c0,4.207,3.409,7.616,7.616,7.616h40.299c4.207,0,7.616-3.409,7.616-7.616v-35.873
	c0-4.207-3.409-7.616-7.616-7.616h-40.299c-4.207,0-7.616,3.409-7.616,7.616V372.04z M443.362,343.783h25.066v20.641h-25.066
	V343.783z"/>
<path d="M504.384,71.695h-28.34c-4.207,0-7.616,3.409-7.616,7.616v28.254h-25.066V79.312c0-4.207-3.409-7.616-7.616-7.616h-263.04
	c-4.207,0-7.616,3.409-7.616,7.616c0,4.207,3.409,7.616,7.616,7.616h255.424v28.254c0,4.207,3.409,7.616,7.616,7.616h40.299
	c4.207,0,7.616-3.409,7.616-7.616V86.928h13.108v338.145H483.66v-24.692c0-4.207-3.409-7.616-7.616-7.616h-40.299
	c-4.207,0-7.616,3.409-7.616,7.616v24.692H82.014v-24.692c0-4.207-3.409-7.616-7.616-7.616H35.956c-4.207,0-7.616,3.409-7.616,7.616
	v24.692H15.232V86.928H28.34v28.254c0,4.207,3.409,7.616,7.616,7.616h38.44c4.207,0,7.616-3.409,7.616-7.616V86.928h29.862
	c4.207,0,7.616-3.409,7.616-7.616c0-4.207-3.409-7.616-7.616-7.616H74.398c-4.207,0-7.616,3.409-7.616,7.616v28.254H43.572V79.312
	c0-4.207-3.409-7.616-7.616-7.616H7.616C3.409,71.695,0,75.104,0,79.312v353.377c0,4.207,3.409,7.616,7.616,7.616h28.34
	c4.207,0,7.616-3.409,7.616-7.616v-24.692H66.78v24.692c0,4.207,3.409,7.616,7.616,7.616h361.349c4.207,0,7.616-3.409,7.616-7.616
	v-24.692h25.066v24.692c0,4.207,3.409,7.616,7.616,7.616h28.34c4.207,0,7.616-3.409,7.616-7.616V79.312
	C512,75.104,508.591,71.695,504.384,71.695z"/>
<path d="M82.014,271.952c0-4.207-3.409-7.616-7.616-7.616H35.956c-4.207,0-7.616,3.409-7.616,7.616v35.873
	c0,4.207,3.409,7.616,7.616,7.616h38.44c4.207,0,7.616-3.409,7.616-7.616v-35.873H82.014z M66.781,300.209H43.572v-20.641H66.78
	v20.641H66.781z"/>
<path d="M435.746,187.013h40.299c4.207,0,7.616-3.409,7.616-7.616v-35.873c0-4.207-3.409-7.616-7.616-7.616h-40.299
	c-4.207,0-7.616,3.409-7.616,7.616v35.873C428.13,183.603,431.539,187.013,435.746,187.013z M443.362,151.139h25.066v20.641h-25.066
	V151.139z"/>
<path d="M82.014,143.523c0-4.207-3.409-7.616-7.616-7.616H35.956c-4.207,0-7.616,3.409-7.616,7.616v35.873
	c0,4.207,3.409,7.616,7.616,7.616h38.44c4.207,0,7.616-3.409,7.616-7.616v-35.873H82.014z M66.781,171.781H43.572V151.14H66.78
	v20.641H66.781z"/>
<path d="M428.13,243.611c0,4.207,3.409,7.616,7.616,7.616h40.299c4.207,0,7.616-3.409,7.616-7.616v-35.874
	c0-4.207-3.409-7.616-7.616-7.616h-40.299c-4.207,0-7.616,3.409-7.616,7.616V243.611z M443.362,215.353h25.066v20.642h-25.066
	V215.353z"/>
<path d="M82.014,207.737c0-4.207-3.409-7.616-7.616-7.616H35.956c-4.207,0-7.616,3.409-7.616,7.616v35.874
	c0,4.207,3.409,7.616,7.616,7.616h38.44c4.207,0,7.616-3.409,7.616-7.616v-35.874H82.014z M66.781,235.995H43.572v-20.642H66.78
	v20.642H66.781z"/>
<path d="M74.398,328.55H35.956c-4.207,0-7.616,3.409-7.616,7.616v35.873c0,4.207,3.409,7.616,7.616,7.616h38.44
	c4.207,0,7.616-3.409,7.616-7.616v-35.873C82.014,331.959,78.604,328.55,74.398,328.55z M66.781,364.423H43.572v-20.641H66.78
	v20.641H66.781z"/>
<path d="M428.13,307.825c0,4.207,3.409,7.616,7.616,7.616h40.299c4.207,0,7.616-3.409,7.616-7.616v-35.873
	c0-4.207-3.409-7.616-7.616-7.616h-40.299c-4.207,0-7.616,3.409-7.616,7.616V307.825z M443.362,279.568h25.066v20.641h-25.066
	V279.568z"/>
</svg>